{"title":"Riddick 2013 CAM AAC x264-SSDD","uid":8895275,"size":603574177,"categoryP":"video","categoryS":"movies","magnet":"?xt=urn:btih:7f66623babcce29a4abc007ebc63ef0d33827a57&amp;dn=Riddick+2013+CAM+AAC+x264-SSDD&amp;tr=udp%3A%2F%2Ftracker.openbittorrent.com%3A80&amp;tr=udp%3A%2F%2Fopen.demonii.com%3A1337&amp;tr=udp%3A%2F%2Ftracker.coppersurfer.tk%3A6969&amp;tr=udp%3A%2F%2Fexodus.desync.com%3A6969","seeders":4,"leechers":0,"uploader":"TeX","files":2,"time":1378685366,"description":"[img]http://i.imgur.com/pjZbl6o.jpg[/img]\n\n\nIMDB Link - http://www.imdb.com/title/tt1411250/\n\nSource - VOBS\n\nNOTES - Enjoy. Resized and adjusted colour, brightness, hue and sharpeness, its a cam what else is there to say.\n\nGeneral\nComplete name : Riddick 2013 CAM AAC x264-SSDD.mp4\nFormat : MPEG-4\nFormat profile : Base Media\nCodec ID : isom\nFile size : 576 MiB\nDuration : 1h 51mn\nOverall bit rate mode : Variable\nOverall bit rate : 719 Kbps\n\nVideo\nID : 1\nFormat : AVC\nFormat/Info : Advanced Video Codec\nFormat profile : &lt;a class=&quot;__cf_email__&quot; href=&quot;/cdn-cgi/l/email-protection&quot; data-cfemail=&quot;eda5848a85ada1d9c3dc&quot;&gt;[email&amp;#160;protected]&lt;/a&gt;&lt;script cf-hash='f9e31' type=&quot;text/javascript&quot;&gt;\n/* &lt;![CDATA[ */!function(){try{var t=&quot;currentScript&quot;in document?document.currentScript:function(){for(var t=document.getElementsByTagName(&quot;script&quot;),e=t.length;e--;)if(t[e].getAttribute(&quot;cf-hash&quot;))return t[e]}();if(t&amp;&amp;t.previousSibling){var e,r,n,i,c=t.previousSibling,a=c.getAttribute(&quot;data-cfemail&quot;);if(a){for(e=&quot;&quot;,r=parseInt(a.substr(0,2),16),n=2;a.length-n;n+=2)i=parseInt(a.substr(n,2),16)^r,e+=String.fromCharCode(i);e=document.createTextNode(e),c.parentNode.replaceChild(e,c)}}}catch(u){}}();/* ]]&gt; */&lt;/script&gt;\nFormat settings, CABAC : Yes\nFormat settings, ReFrames : 4 frames\nCodec ID : avc1\nCodec ID/Info : Advanced Video Coding\nDuration : 1h 51mn\nBit rate : 634 Kbps\nMaximum bit rate : 4 500 Kbps\nWidth : 608 pixels\nHeight : 336 pixels\nDisplay aspect ratio : 16:9\nFrame rate mode : Constant\nFrame rate : 29.970 fps\nColor space : YUV\nChroma subsampling : 4:2:0\nBit depth : 8 bits\nScan type : Progressive\nBits/(Pixel*Frame) : 0.104\nStream size : 508 MiB (88%)\n\nAudio\nID : 2\nFormat : AAC\nFormat/Info : Advanced Audio Codec\nFormat profile : LC\nCodec ID : 40\nDuration : 1h 51mn\nBit rate mode : Variable\nBit rate : 80.0 Kbps\nMaximum bit rate : 83.5 Kbps\nChannel(s) : 2 channels\nChannel positions : Front: L R\nSampling rate : 48.0 KHz\nCompression mode : Lossy\nDelay relative to video : 67ms\nStream size : 64.1 MiB (11%)\n\n\n\n[img]http://ultraimg.com/images/w4Grs.png[/img]\n[img]http://ultraimg.com/images/VRvis.png[/img]","torrent":{"xt":"urn:btih:7f66623babcce29a4abc007ebc63ef0d33827a57","amp;dn":"Riddick+2013+CAM+AAC+x264-SSDD","amp;tr":["udp%3A%2F%2Ftracker.openbittorrent.com%3A80","udp%3A%2F%2Fopen.demonii.com%3A1337","udp%3A%2F%2Ftracker.coppersurfer.tk%3A6969","udp%3A%2F%2Fexodus.desync.com%3A6969"],"infoHash":"7f66623babcce29a4abc007ebc63ef0d33827a57","infoHashBuffer":{"type":"Buffer","data":[127,102,98,59,171,204,226,154,74,188,0,126,188,99,239,13,51,130,122,87]},"announce":[],"urlList":[]}}